<svg width="19" height="18" viewBox="0 0 19 18" fill="none" xmlns="http://www.w3.org/2000/svg">
<path d="M11.4579 17.3334C12.0104 17.3334 12.5403 17.1139 12.931 16.7232C13.3217 16.3325 13.5412 15.8026 13.5412 15.2501C13.5412 14.6975 13.3217 14.1676 12.931 13.7769C12.5403 13.3862 12.0104 13.1667 11.4579 13.1667C10.9054 13.1667 10.3754 13.3862 9.98475 13.7769C9.59404 14.1676 9.37455 14.6975 9.37455 15.2501C9.37455 15.8026 9.59404 16.3325 9.98475 16.7232C10.3754 17.1139 10.9054 17.3334 11.4579 17.3334ZM4.16622 17.3334C4.71875 17.3334 5.24866 17.1139 5.63936 16.7232C6.03006 16.3325 6.24955 15.8026 6.24955 15.2501C6.24955 14.6975 6.03006 14.1676 5.63936 13.7769C5.24866 13.3862 4.71875 13.1667 4.16622 13.1667C3.61368 13.1667 3.08378 13.3862 2.69308 13.7769C2.30238 14.1676 2.08288 14.6975 2.08288 15.2501C2.08288 15.8026 2.30238 16.3325 2.69308 16.7232C3.08378 17.1139 3.61368 17.3334 4.16622 17.3334ZM17.7475 2.66987C18.0075 2.66149 18.2541 2.55229 18.4351 2.36538C18.6161 2.17846 18.7172 1.92849 18.7172 1.66831C18.7172 1.40814 18.6161 1.15816 18.4351 0.971245C18.2541 0.784332 18.0075 0.675135 17.7475 0.666748H16.5485C15.6089 0.666748 14.7964 1.31883 14.5923 2.2355L13.2871 8.11258C13.0829 9.02925 12.2704 9.68133 11.3308 9.68133H3.5058L2.00372 3.67091H11.7381C11.9957 3.65916 12.2388 3.54856 12.417 3.36211C12.5951 3.17567 12.6945 2.92773 12.6945 2.66987C12.6945 2.41201 12.5951 2.16408 12.417 1.97763C12.2388 1.79119 11.9957 1.68059 11.7381 1.66883H2.00372C1.6992 1.66874 1.39868 1.73808 1.12498 1.87157C0.85129 2.00507 0.611635 2.19921 0.424236 2.43923C0.236837 2.67925 0.106628 2.95884 0.0435085 3.25674C-0.0196133 3.55464 -0.0139828 3.86302 0.0599689 4.15841L1.56205 10.1667C1.67034 10.6003 1.92048 10.9852 2.27269 11.2602C2.62489 11.5352 3.05894 11.6845 3.5058 11.6845H11.3308C12.2425 11.6846 13.1269 11.3738 13.8381 10.8033C14.5492 10.2329 15.0446 9.43693 15.2423 8.54695L16.5485 2.66987H17.7475Z" fill="#0156FF"/>
</svg>
